<?xml version="1.0" standalone="no"?>
<!DOCTYPE svg PUBLIC "-//W3C//DTD SVG 20010904//EN"
 "http://www.w3.org/TR/2001/REC-SVG-20010904/DTD/svg10.dtd">
<svg version="1.0" xmlns="http://www.w3.org/2000/svg"
 width="160.000000pt" height="160.000000pt" viewBox="0 0 160.000000 160.000000"
 preserveAspectRatio="xMidYMid meet">
<metadata>
Created by potrace 1.14, written by Peter Selinger 2001-2017
</metadata>
<g transform="translate(0.000000,160.000000) scale(0.100000,-0.100000)"
fill="#000000" stroke="none">
<path d="M840 1269 c0 -5 1 -9 3 -9 1 0 17 -4 35 -9 44 -13 41 3 -3 16 -20 6
-35 7 -35 2z"/>
<path d="M736 1194 c-38 -7 -74 -18 -80 -24 -13 -13 -11 -13 48 5 27 8 62 15
78 15 15 0 28 5 28 10 0 6 -1 10 -2 9 -2 0 -34 -7 -72 -15z"/>
<path d="M820 1190 c0 -4 19 -7 42 -9 51 -3 105 -27 119 -52 11 -22 9 -22 -26
-9 -49 19 -80 23 -185 25 -97 2 -109 0 -158 -25 -29 -15 -53 -30 -53 -34 1 -6
-1 -6 -16 -6 -5 1 5 11 21 24 26 21 26 23 7 22 -23 -1 -85 -56 -103 -91 -7
-13 1 -9 24 13 37 35 48 39 48 19 0 -8 -12 -19 -26 -25 -16 -8 -34 -32 -50
-67 -14 -30 -27 -55 -28 -55 -2 0 -1 12 2 26 3 17 1 25 -5 21 -24 -15 -32
-145 -12 -184 10 -18 8 -27 -10 -52 -39 -55 -46 -43 -56 99 -6 86 -10 99 -22
86 -11 -11 -5 -169 7 -202 19 -49 28 -55 60 -39 16 8 30 20 32 27 3 8 12 0 21
-17 19 -38 93 -115 109 -115 6 0 3 7 -8 16 -16 13 -16 15 -1 10 24 -7 21 1 -4
15 -15 8 -19 8 -15 0 4 -6 3 -11 -3 -11 -12 0 -41 57 -41 79 1 14 2 14 11 -1
5 -10 30 -33 55 -52 27 -21 40 -36 32 -39 -8 -3 -6 -6 5 -6 10 -1 37 -20 59
-43 23 -24 45 -44 50 -44 4 -1 15 -2 24 -3 8 0 12 -6 9 -12 -8 -12 82 -8 103
5 7 4 19 5 27 2 8 -3 37 1 64 10 60 17 102 62 122 128 10 35 18 46 34 46 50 1
85 63 85 152 0 53 -5 70 -30 108 -16 25 -30 52 -30 60 0 21 -49 124 -56 117
-3 -3 2 -17 12 -31 9 -15 14 -29 11 -33 -3 -3 3 -23 13 -44 23 -44 24 -49 10
-49 -9 0 -60 97 -60 114 0 4 6 4 13 0 6 -4 -5 11 -25 32 -34 36 -50 63 -30 50
4 -2 14 -1 21 3 9 6 3 12 -23 21 -20 6 -36 15 -36 18 0 4 -32 7 -70 7 -39 0
-70 -2 -70 -5z m78 -79 c12 -6 22 -13 22 -14 0 -1 -21 -2 -47 -2 -52 -1 -120
-9 -168 -20 -22 -5 -26 -4 -15 4 8 6 34 13 58 17 25 4 40 10 35 15 -19 19
-203 -59 -227 -97 -9 -13 -24 -36 -33 -51 -14 -21 -15 -25 -3 -19 8 5 12 5 7
1 -7 -9 -47 -15 -47 -8 0 2 9 20 19 41 25 49 89 111 120 118 15 3 42 12 61 19
42 16 185 14 218 -4z m88 -29 c-3 -3 2 -11 12 -18 9 -7 14 -15 11 -18 -9 -9
-50 34 -44 45 4 5 11 7 16 3 6 -3 8 -8 5 -12z m-91 -12 c-3 -5 2 -10 12 -10
10 -1 32 -7 48 -15 l30 -15 -31 6 c-21 3 -49 -3 -85 -20 -36 -16 -59 -21 -70
-15 -9 4 -18 7 -20 4 -2 -2 -4 -93 -3 -202 1 -162 3 -198 15 -198 11 0 14 18
13 82 -1 79 -1 81 20 73 64 -25 105 -48 98 -54 -4 -4 -2 -7 3 -5 16 4 63 -12
74 -25 8 -9 2 -21 -21 -42 -17 -16 -28 -23 -24 -16 13 22 -19 13 -33 -9 -11
-19 -11 -21 4 -16 27 11 7 -12 -27 -29 -19 -10 -40 -13 -57 -9 -14 4 -42 8
-61 10 -45 3 -90 15 -90 24 0 5 -18 14 -40 21 -22 7 -48 22 -57 33 -17 19 -16
19 24 -2 50 -25 81 -29 61 -7 -7 7 -19 11 -27 8 -8 -3 -12 -1 -8 4 3 6 -10 16
-30 23 -34 13 -35 15 -29 51 11 69 47 171 68 192 33 33 45 7 53 -117 3 -60 8
-111 10 -113 24 -24 27 145 5 229 -27 99 -116 48 -136 -79 -7 -46 -24 -57 -24
-17 0 32 0 29 -12 67 -14 48 -18 79 -7 72 5 -3 9 0 9 6 0 18 91 69 160 91 38
12 87 19 117 18 29 -2 56 0 60 4 10 10 15 8 8 -3z m70 -80 c-3 -6 1 -7 9 -4
33 13 15 -27 -26 -57 -37 -26 -130 -79 -141 -79 -9 0 11 102 22 113 27 27 152
52 136 27z m68 -78 c0 -11 4 -19 8 -16 13 8 19 -28 13 -79 -6 -58 -22 -107
-35 -107 -13 0 -199 94 -199 100 0 3 34 27 75 53 40 27 84 57 96 68 24 21 39
14 42 -19z m110 -77 c-1 -31 -7 -71 -13 -89 -12 -37 -40 -57 -40 -28 0 32 21
92 32 92 7 0 9 18 6 51 -4 36 -2 47 6 39 6 -6 10 -35 9 -65z m-706 23 c-3 -7
-5 -2 -5 12 0 14 2 19 5 13 2 -7 2 -19 0 -25z m54 -1 c-10 -9 -11 -8 -5 6 3
10 9 15 12 12 3 -3 0 -11 -7 -18z m40 -29 c0 -24 2 -58 4 -75 3 -30 2 -32 -16
-23 -10 6 -23 19 -29 30 -12 23 -14 81 -1 62 6 -10 10 -5 14 17 9 45 27 38 28
-11z m576 20 c-3 -8 -6 -5 -6 6 -1 11 2 17 5 13 3 -3 4 -12 1 -19z m-85 -250
c-41 -67 -155 -116 -184 -80 -8 9 -13 10 -18 2 -7 -11 -40 -4 -40 9 0 8 42 7
56 -2 13 -8 99 18 133 40 14 9 35 27 45 40 28 33 31 29 8 -9z m-267 -84 l30
-14 -35 5 c-19 3 -42 6 -51 6 -9 0 -16 7 -16 15 0 15 18 12 72 -12z"/>
<path d="M818 1053 c6 -2 18 -2 25 0 6 3 1 5 -13 5 -14 0 -19 -2 -12 -5z"/>
<path d="M974 648 l-19 -23 23 19 c21 18 27 26 19 26 -2 0 -12 -10 -23 -22z"/>
<path d="M850 590 c-22 -7 -21 -8 13 -9 20 -1 37 4 37 9 0 11 -14 11 -50 0z"/>
<path d="M720 586 c0 -2 13 -6 29 -8 17 -2 28 -1 25 4 -5 8 -54 12 -54 4z"/>
<path d="M790 580 c0 -5 5 -10 10 -10 6 0 10 5 10 10 0 6 -4 10 -10 10 -5 0
-10 -4 -10 -10z"/>
<path d="M1017 846 c-4 -10 -7 -25 -6 -34 0 -11 4 -9 10 7 5 13 8 29 6 35 -2
5 -6 2 -10 -8z"/>
<path d="M1038 1179 c12 -14 22 -31 22 -37 0 -7 5 -12 10 -12 6 0 20 -16 32
-35 11 -20 23 -33 26 -31 7 8 -43 78 -81 112 -26 24 -28 24 -9 3z"/>
<path d="M158 1006 c-89 -32 -170 -134 -149 -189 17 -43 51 -59 156 -72 66 -8
95 -16 95 -25 0 -16 -45 -41 -112 -61 -69 -21 -109 -49 -71 -49 49 0 207 69
217 95 2 7 -2 22 -10 33 -11 16 -34 22 -114 32 -87 11 -103 16 -120 37 -14 19
-17 30 -10 49 16 42 43 76 83 105 33 24 42 26 62 17 28 -13 57 4 48 28 -6 17
-27 17 -75 0z"/>
<path d="M445 999 c-4 -6 -5 -12 -2 -15 2 -3 7 2 10 11 7 17 1 20 -8 4z"/>
<path d="M1210 918 c-20 -54 -25 -209 -7 -233 13 -17 18 -18 41 -7 40 18 69
91 64 159 -8 95 -73 149 -98 81z m66 -85 c1 -54 -3 -79 -17 -103 -11 -17 -24
-28 -29 -25 -11 7 -13 146 -4 183 5 16 13 22 28 20 19 -3 21 -10 22 -75z"/>
<path d="M1501 885 c-12 -25 -21 -52 -21 -62 0 -27 -11 -7 -21 38 -6 24 -15
47 -22 51 -22 14 -46 -12 -53 -57 -8 -54 -15 -52 -19 4 -2 22 -6 45 -10 51
-11 17 -25 0 -20 -23 3 -12 7 -64 9 -115 6 -131 23 -139 46 -22 16 78 28 115
37 107 3 -4 11 -32 17 -63 6 -32 17 -59 23 -61 7 -3 21 24 33 66 30 96 50 92
50 -9 0 -60 14 -100 36 -100 12 0 14 5 9 18 -5 9 -12 57 -16 105 -11 126 -40
153 -78 72z"/>
<path d="M205 395 c3 -14 7 -36 10 -50 7 -33 18 -32 32 3 10 24 11 25 12 5 1
-20 17 -40 26 -32 2 2 6 25 10 52 5 32 4 47 -4 47 -6 0 -11 -12 -12 -27 l-1
-28 -10 28 c-5 15 -14 27 -19 27 -5 0 -9 -12 -10 -27 l-1 -28 -10 28 c-12 34
-30 36 -23 2z"/>
<path d="M314 370 c0 -48 0 -50 28 -50 15 0 28 5 28 11 0 6 -6 9 -14 6 -8 -3
-17 0 -19 8 -3 7 4 16 16 20 l22 8 -22 4 c-14 3 -20 9 -17 18 3 8 12 11 20 8
8 -3 14 0 14 6 0 6 -12 11 -28 11 -26 0 -27 -2 -28 -50z"/>
<path d="M380 370 c0 -48 1 -50 29 -50 31 0 38 10 36 51 -2 36 -13 49 -41 49
-22 0 -24 -4 -24 -50z m36 13 c-10 -10 -19 5 -10 18 6 11 8 11 12 0 2 -7 1
-15 -2 -18z m8 -32 c3 -5 -1 -11 -9 -15 -9 -3 -15 0 -15 9 0 16 16 20 24 6z"/>
<path d="M490 370 c0 -46 2 -50 23 -50 30 0 47 18 47 50 0 32 -17 50 -47 50
-21 0 -23 -4 -23 -50z m46 3 c-1 -38 -26 -42 -26 -4 0 19 5 31 14 31 8 0 13
-10 12 -27z"/>
<path d="M570 370 c0 -49 1 -50 30 -50 17 0 30 5 30 11 0 5 -4 8 -8 5 -4 -2
-14 -1 -22 4 -13 8 -12 12 5 24 18 14 18 15 3 16 -10 0 -18 5 -18 10 0 9 14
14 33 11 4 0 7 4 7 9 0 6 -13 10 -30 10 -29 0 -30 -1 -30 -50z"/>
<path d="M647 413 c-14 -13 -6 -42 13 -48 21 -7 26 -20 11 -29 -5 -4 -11 0
-14 6 -2 7 -8 10 -12 6 -12 -12 5 -28 31 -28 19 0 24 5 24 24 0 16 -7 27 -20
31 -21 7 -26 20 -11 29 5 4 11 0 14 -6 2 -7 8 -10 12 -6 4 4 4 11 0 17 -7 12
-38 15 -48 4z"/>
<path d="M719 418 c-8 -14 -3 -98 5 -95 12 4 16 97 4 97 -4 0 -9 -1 -9 -2z"/>
<path d="M762 411 c-8 -5 -12 -23 -10 -47 3 -36 5 -39 33 -39 23 0 31 5 33 23
3 17 -2 22 -19 22 -17 0 -19 -3 -10 -14 7 -8 8 -17 3 -20 -14 -9 -22 5 -22 37
0 26 3 29 25 23 19 -5 23 -3 19 9 -7 16 -31 19 -52 6z"/>
<path d="M830 370 c0 -36 4 -50 14 -50 9 0 12 8 8 25 -6 33 6 32 18 -1 6 -14
15 -24 22 -22 11 4 12 15 9 78 -2 31 -21 24 -22 -7 l-1 -28 -10 28 c-17 46
-38 34 -38 -23z"/>
<path d="M957 413 c-14 -13 -6 -42 13 -48 22 -7 26 -20 10 -30 -5 -3 -10 -1
-10 4 0 6 -7 11 -16 11 -14 0 -14 -3 -4 -15 17 -20 49 -19 57 2 4 10 -2 23
-15 34 -12 9 -22 23 -22 29 0 10 4 9 15 0 17 -14 31 -8 20 9 -7 12 -38 15 -48
4z"/>
<path d="M1020 410 c0 -5 5 -10 10 -10 6 0 10 -18 10 -40 0 -22 5 -40 10 -40
6 0 10 21 10 46 0 27 4 43 10 39 6 -3 10 -1 10 4 0 6 -13 11 -30 11 -16 0 -30
-4 -30 -10z"/>
<path d="M1092 373 c3 -46 4 -48 33 -48 29 0 30 2 33 48 2 26 -1 47 -7 47 -5
0 -11 -19 -13 -42 -2 -24 -7 -43 -13 -43 -5 0 -11 19 -13 43 -2 23 -8 42 -13
42 -6 0 -9 -21 -7 -47z"/>
<path d="M1170 370 c0 -46 2 -50 23 -50 30 0 47 18 47 50 0 32 -17 50 -47 50
-21 0 -23 -4 -23 -50z m47 3 c-2 -15 -9 -29 -15 -31 -7 -2 -10 7 -8 25 4 34 4
33 16 33 6 0 9 -12 7 -27z"/>
<path d="M1250 370 c0 -27 5 -50 10 -50 6 0 10 23 10 50 0 28 -4 50 -10 50 -5
0 -10 -22 -10 -50z"/>
<path d="M1292 403 c-7 -16 -8 -34 -3 -73 2 -14 48 -12 58 3 20 32 4 87 -27
87 -11 0 -23 -8 -28 -17z m43 -31 c2 -11 -2 -26 -10 -32 -20 -16 -23 -4 -16
62 2 18 21 -4 26 -30z"/>
</g>
</svg>
